<?xml version="1.0" standalone="no"?>
<!DOCTYPE svg PUBLIC "-//W3C//DTD SVG 20010904//EN"
 "http://www.w3.org/TR/2001/REC-SVG-20010904/DTD/svg10.dtd">
<svg version="1.0" xmlns="http://www.w3.org/2000/svg"
 width="238.000000pt" height="238.000000pt" viewBox="0 0 238.000000 238.000000"
 preserveAspectRatio="xMidYMid meet">

<g transform="translate(0.000000,238.000000) scale(0.100000,-0.100000)"
fill="#000000" stroke="none">
<path d="M492 2308 c-7 -7 -12 -26 -12 -42 0 -42 -8 -52 -60 -75 -57 -26 -92
-26 -115 -1 -27 30 -57 24 -98 -18 -42 -43 -46 -70 -17 -97 25 -23 25 -58 -1
-115 -23 -52 -33 -60 -74 -60 -44 0 -55 -16 -55 -80 0 -64 11 -80 55 -80 41 0
51 -8 74 -60 26 -57 26 -92 1 -115 -30 -27 -24 -57 18 -98 40 -39 72 -47 92
-21 28 33 48 35 102 13 63 -26 78 -42 78 -84 0 -44 16 -55 81 -55 65 0 76 9
81 65 3 36 7 42 48 61 76 36 85 37 118 9 41 -34 61 -32 105 13 44 45 46 64 12
104 -28 33 -27 41 9 118 19 41 25 45 61 48 56 5 65 16 65 81 0 65 -11 81 -55
81 -42 0 -58 15 -84 78 l-22 54 25 37 c14 20 26 44 26 52 0 22 -73 89 -96 89
-12 0 -29 -9 -40 -21 -22 -25 -66 -22 -129 7 -36 17 -40 23 -43 59 -2 22 -8
45 -14 52 -13 17 -120 17 -136 1z m158 -303 c69 -36 110 -104 110 -185 0 -63
-18 -106 -62 -148 -128 -122 -340 -31 -342 147 -2 151 161 254 294 186z"/>
<path d="M2017 2306 c-94 -26 -166 -115 -167 -206 0 -45 0 -46 -172 -217 -147
-145 -179 -172 -211 -177 -42 -8 -100 -54 -123 -97 -17 -33 -19 -116 -3 -156
15 -40 48 -73 94 -94 104 -48 220 4 257 113 7 21 71 94 182 206 134 135 176
172 197 172 42 0 117 26 153 54 65 49 102 162 80 244 -10 36 -33 26 -105 -43
-37 -36 -72 -65 -78 -65 -21 0 -81 62 -81 84 0 13 25 46 65 86 36 35 65 70 65
77 0 25 -90 36 -153 19z m-93 -388 c9 -12 16 -29 16 -37 0 -8 -55 -70 -122
-138 -128 -129 -151 -142 -190 -106 -38 35 -24 61 100 185 101 101 123 118
149 118 22 0 37 -7 47 -22z m-365 -313 c70 -36 61 -138 -15 -164 -38 -13 -44
-13 -75 5 -62 36 -62 129 1 161 33 17 55 16 89 -2z"/>
<path d="M1757 1792 c-106 -106 -123 -132 -89 -132 19 0 232 208 232 228 0 32
-45 3 -143 -96z"/>
<path d="M1476 1564 c-17 -16 -21 -51 -8 -71 15 -24 59 -26 81 -4 26 26 27 45
1 71 -24 24 -53 26 -74 4z"/>
<path d="M767 1056 c-94 -26 -166 -115 -167 -206 0 -45 0 -46 -172 -217 -147
-145 -179 -172 -211 -177 -42 -8 -100 -54 -123 -97 -17 -33 -19 -116 -3 -156
15 -40 48 -73 94 -94 104 -48 220 4 257 113 7 21 71 94 182 206 134 135 176
172 197 172 42 0 117 26 153 54 65 49 102 162 80 244 -10 36 -33 26 -105 -43
-37 -36 -72 -65 -78 -65 -21 0 -81 62 -81 84 0 13 25 46 65 86 36 35 65 70 65
77 0 25 -90 36 -153 19z m-93 -388 c9 -12 16 -29 16 -37 0 -8 -55 -70 -122
-138 -128 -129 -151 -142 -190 -106 -38 35 -24 61 100 185 101 101 123 118
149 118 22 0 37 -7 47 -22z m-365 -313 c70 -36 61 -138 -15 -164 -38 -13 -44
-13 -75 5 -62 36 -62 129 1 161 33 17 55 16 89 -2z"/>
<path d="M507 542 c-106 -106 -123 -132 -89 -132 19 0 232 208 232 228 0 32
-45 3 -143 -96z"/>
<path d="M226 314 c-17 -16 -21 -51 -8 -71 15 -24 59 -26 81 -4 26 26 27 45 1
71 -24 24 -53 26 -74 4z"/>
<path d="M1742 1058 c-7 -7 -12 -26 -12 -42 0 -42 -8 -52 -60 -75 -57 -26 -92
-26 -115 -1 -27 30 -57 24 -98 -18 -42 -43 -46 -70 -17 -97 25 -23 25 -58 -1
-115 -23 -52 -33 -60 -74 -60 -44 0 -55 -16 -55 -80 0 -64 11 -80 55 -80 41 0
51 -8 74 -60 26 -57 26 -92 1 -115 -30 -27 -24 -57 18 -98 40 -39 72 -47 92
-21 28 33 48 35 102 13 63 -26 78 -42 78 -84 0 -44 16 -55 81 -55 65 0 76 9
81 65 3 36 7 42 48 61 76 36 85 37 118 9 41 -34 61 -32 105 13 44 45 46 64 12
104 -28 33 -27 41 9 118 19 41 25 45 61 48 56 5 65 16 65 81 0 65 -11 81 -55
81 -42 0 -58 15 -84 78 l-22 54 25 37 c14 20 26 44 26 52 0 22 -73 89 -96 89
-12 0 -29 -9 -40 -21 -22 -25 -66 -22 -129 7 -36 17 -40 23 -43 59 -2 22 -8
45 -14 52 -13 17 -120 17 -136 1z m158 -303 c69 -36 110 -104 110 -185 0 -63
-18 -106 -62 -148 -128 -122 -340 -31 -342 147 -2 151 161 254 294 186z"/>
</g>
</svg>
